HIERARCHY
ROOT Hips
{
	OFFSET 234.239197 91.082298 198.650101
	CHANNELS 6 Xposition Yposition Zposition Zrotation Yrotation Xrotation 
	JOINT LeftUpLeg
	{
		OFFSET 0.103457 1.857824 10.548509
		CHANNELS 3 Zrotation Yrotation Xrotation
		JOINT LeftLeg
		{
			OFFSET 43.500000 -0.000023 0.000006
			CHANNELS 3 Zrotation Yrotation Xrotation
			JOINT LeftFoot
			{
				OFFSET 42.372192 0.000011 -0.000009
				CHANNELS 3 Zrotation Yrotation Xrotation
				JOINT LeftToe
				{
					OFFSET 17.300005 0.000002 -0.000010
					CHANNELS 3 Zrotation Yrotation Xrotation
					End Site
					{
						OFFSET 0.000000 0.000000 0.000000
					}
				}
			}
		}
	}
	JOINT RightUpLeg
	{
		OFFSET 0.103458 1.857836 -10.548506
		CHANNELS 3 Zrotation Yrotation Xrotation
		JOINT RightLeg
		{
			OFFSET 43.500038 -0.000023 0.000017
			CHANNELS 3 Zrotation Yrotation Xrotation
			JOINT RightFoot
			{
				OFFSET 42.372269 -0.000019 0.000007
				CHANNELS 3 Zrotation Yrotation Xrotation
				JOINT RightToe
				{
					OFFSET 17.299999 -0.000003 0.000008
					CHANNELS 3 Zrotation Yrotation Xrotation
					End Site
					{
						OFFSET 0.000000 0.000000 0.000000
					}
				}
			}
		}
	}
	JOINT Spine
	{
		OFFSET 6.901969 -2.603729 0.000003
		CHANNELS 3 Zrotation Yrotation Xrotation
		JOINT Spine1
		{
			OFFSET 12.588093 -0.000007 0.000001
			CHANNELS 3 Zrotation Yrotation Xrotation
			JOINT Spine2
			{
				OFFSET 12.343206 0.000014 -0.000007
				CHANNELS 3 Zrotation Yrotation Xrotation
				JOINT Neck
				{
					OFFSET 25.832899 -0.000010 0.000002
					CHANNELS 3 Zrotation Yrotation Xrotation
					JOINT Head
					{
						OFFSET 11.766599 0.000010 -0.000001
						CHANNELS 3 Zrotation Yrotation Xrotation
						End Site
						{
							OFFSET 0.000000 0.000000 0.000000
						}
					}
				}
				JOINT LeftShoulder
				{
					OFFSET 19.745895 -1.480371 6.000111
					CHANNELS 3 Zrotation Yrotation Xrotation
					JOINT LeftArm
					{
						OFFSET 11.284124 -0.000010 -0.000007
						CHANNELS 3 Zrotation Yrotation Xrotation
						JOINT LeftForeArm
						{
							OFFSET 33.000061 0.000006 0.000028
							CHANNELS 3 Zrotation Yrotation Xrotation
							JOINT LeftHand
							{
								OFFSET 25.200001 0.000019 0.000008
								CHANNELS 3 Zrotation Yrotation Xrotation
								End Site
								{
									OFFSET 0.000000 0.000000 0.000000
								}
							}
						}
					}
				}
				JOINT RightShoulder
				{
					OFFSET 19.746101 -1.480375 -6.000078
					CHANNELS 3 Zrotation Yrotation Xrotation
					JOINT RightArm
					{
						OFFSET 11.284128 -0.000010 -0.000011
						CHANNELS 3 Zrotation Yrotation Xrotation
						JOINT RightForeArm
						{
							OFFSET 33.000095 0.000022 0.000002
							CHANNELS 3 Zrotation Yrotation Xrotation
							JOINT RightHand
							{
								OFFSET 25.199768 0.000129 0.000422
								CHANNELS 3 Zrotation Yrotation Xrotation
								End Site
								{
									OFFSET 0.000000 0.000000 0.000000
								}
							}
						}
					}
				}
			}
		}
	}
}
MOTION
Frames: 8
Frame Time: 0.033333
234.239197 91.082298 198.650101 90.248997 -1.751229 82.170161 171.250082 -5.689098 167.970020 -21.404208 2.413646 -6.389642 82.428635 2.734591 -7.383183 21.454555 0.003099 0.000000 172.740470 5.055603 -169.950980 -19.389350 -4.180563 5.495036 85.451226 -1.671638 10.752132 21.454558 -0.003115 -0.000020 5.384002 -0.100293 0.226226 0.731863 -0.202042 0.502459 0.413786 -0.198849 0.503668 8.103861 5.855691 -4.039727 -25.870890 -3.901655 -1.613777 -68.782211 -84.016566 -113.545324 2.903849 15.984009 -10.563486 -47.000693 -27.786185 2.521971 7.451432 -11.833135 13.225992 -101.537230 86.316980 80.466745 -2.157125 -11.627750 14.172707 -37.854858 16.232836 -1.491207 1.985683 14.775031 -15.804339 
234.238297 91.083168 198.650894 90.247733 -1.751231 82.175474 171.250068 -5.689804 167.971414 -21.404213 2.413646 -6.386712 82.428629 2.733598 -7.378240 21.454553 0.003101 -0.000001 172.736249 5.050403 -169.950966 -19.394840 -4.181168 5.507877 85.451219 -1.682452 10.741419 21.454555 -0.003107 -0.000018 5.384000 -0.100286 0.226216 0.731867 -0.202049 0.502469 0.413786 -0.198852 0.503663 8.109799 5.886183 -4.047216 -25.874097 -3.921070 -1.608501 -68.714299 -84.012638 -113.613681 2.895096 15.994111 -10.568269 -47.000693 -27.793522 2.521967 7.447967 -11.828160 13.217710 -101.789817 86.328960 80.211843 -2.130351 -11.624260 14.183794 -37.854862 16.220953 -1.491198 1.985117 14.780861 -15.822932 
234.217804 91.081207 198.662201 90.228247 -1.751229 82.256931 171.249057 -5.722786 168.009143 -21.401957 2.407438 -6.349655 82.431716 2.702080 -7.405640 21.454551 0.003095 -0.000000 172.759649 5.017106 -169.956212 -19.410438 -4.165413 5.586839 85.449287 -1.742147 10.720960 21.454560 -0.003108 -0.000017 5.383989 -0.102454 0.226220 0.731878 -0.206390 0.506757 0.413786 -0.203185 0.507995 8.051572 5.884454 -4.155773 -25.795125 -3.852653 -1.753984 -68.426474 -84.059377 -113.896826 2.921076 16.002928 -10.609342 -47.004324 -27.796177 2.521965 7.493470 -11.782326 13.249848 -102.069049 86.183149 79.943888 -2.237594 -11.669498 14.221756 -37.841157 16.222302 -1.491204 2.140391 14.653361 -15.796196 
234.203094 91.072411 198.666397 90.249304 -1.751234 82.310500 171.220780 -5.705500 168.056053 -21.435804 2.401248 -6.353300 82.443013 2.713515 -7.368131 21.454551 0.003102 0.000001 172.755674 5.035015 -169.922976 -19.451204 -4.177762 5.580768 85.530088 -1.741584 10.738645 21.454557 -0.003117 -0.000020 5.383992 -0.114027 0.226219 0.735120 -0.229479 0.488883 0.417034 -0.226388 0.490269 8.060875 5.976242 -4.207374 -25.853748 -3.870325 -1.785060 -68.193681 -84.042370 -114.131573 2.969985 15.966293 -10.544233 -46.948685 -27.844207 2.521966 7.394976 -11.717930 13.310563 -102.636938 86.200170 79.372105 -2.209087 -11.698850 14.249469 -37.799336 16.144732 -1.491206 2.195975 14.747311 -15.807667 
234.192093 91.075081 198.676193 90.229948 -1.751226 82.361064 171.237965 -5.729012 168.100067 -21.410480 2.390908 -6.342075 82.435076 2.692468 -7.427140 21.454553 0.003103 0.000002 172.779061 5.018789 -169.905518 -19.451651 -4.173085 5.593768 85.475084 -1.754458 10.692287 21.454560 -0.003099 -0.000017 5.383999 -0.113196 0.226228 0.749094 -0.227832 0.475528 0.431021 -0.224813 0.476894 8.000879 6.021243 -4.242960 -25.897342 -3.860332 -1.814908 -68.521393 -83.982298 -113.809748 2.926608 15.970582 -10.687144 -46.987088 -27.831042 2.521968 7.409419 -11.730914 13.326016 -102.918670 86.183662 79.090872 -2.197342 -11.692584 14.229697 -37.737113 16.120454 -1.491187 2.153398 14.665278 -15.901838 
234.186203 91.073402 198.677902 90.234872 -1.751231 82.387927 171.225165 -5.725795 168.103933 -21.411058 2.401407 -6.324943 82.431975 2.677516 -7.439273 21.454550 0.003078 -0.000003 172.763980 5.009506 -169.859797 -19.471478 -4.198191 5.597016 85.508614 -1.756498 10.707604 21.454558 -0.003122 -0.000019 5.383999 -0.113138 0.226217 0.754658 -0.237591 0.475899 0.436567 -0.234575 0.477326 7.950519 6.005451 -4.297359 -25.913222 -3.734581 -1.928175 -68.481751 -83.971425 -113.850586 2.915543 15.974310 -10.748845 -47.000840 -27.875918 2.521966 7.409362 -11.803554 13.404620 -103.168539 86.228980 78.836045 -2.054106 -11.704172 14.128066 -37.723668 16.139510 -1.491194 2.161773 14.638958 -15.780749 
234.179901 91.072632 198.684906 90.236430 -1.751740 82.428212 171.214155 -5.723797 168.132101 -21.420464 2.398698 -6.316930 82.448511 2.674183 -7.432614 21.454553 0.003095 0.000002 172.784798 5.010048 -169.822941 -19.456106 -4.194798 5.600741 85.528168 -1.755826 10.724526 21.454557 -0.003099 -0.000017 5.384129 -0.113196 0.226224 0.774693 -0.236744 0.458478 0.456598 -0.233814 0.459905 7.768731 6.085133 -4.330708 -25.858724 -3.788884 -1.916534 -68.279994 -84.003902 -114.049037 3.049939 15.999491 -10.756931 -47.032710 -27.917445 2.521967 7.419814 -11.804242 13.423048 -102.748796 86.195894 79.260234 -2.014766 -11.731170 14.143842 -37.753017 16.129121 -1.491198 2.109297 14.665342 -15.891663 
234.180695 91.072037 198.685104 90.236464 -1.766258 82.455772 171.196465 -5.713300 168.171033 -21.410865 2.399162 -6.325395 82.423465 2.677435 -7.438087 21.454553 0.003087 -0.000001 172.769977 5.013708 -169.806030 -19.469762 -4.205341 5.591223 85.526372 -1.753986 10.707286 21.454557 -0.003106 -0.000017 5.384363 -0.113354 0.226220 0.776964 -0.236721 0.451708 0.458895 -0.234158 0.453175 7.788512 6.261613 -4.394270 -25.983392 -3.768233 -1.962724 -67.849945 -84.011422 -114.478649 3.120514 16.010720 -10.758535 -47.071734 -27.911645 2.521965 7.443643 -11.780527 13.433052 -103.043622 86.098715 78.972184 -2.048507 -11.678838 13.988952 -37.703689 16.126994 -1.491189 2.126559 14.663538 -15.848880 
